# xmcd CD database file
#
# Track frame offsets:
#	150
#	16287
#	27196
#	43828
#	59199
#	74239
#	87197
#	95811
#	109123
#	120095
#	133244
#	153399
#	165484
#	180611
#	197583
#	213059
#	232659
#	248454
#	259393
#	270808
#	281981
#	294050
#	309035
#	324629
#
# Disc length: 4572 seconds
#
# Revision: 0
# Processed by: cddbd v1.5.2PL0 Copyright (c) Steve Scherf et al.
# Submitted via: CDex 2.20
#
DISCID=4c11da18
DTITLE=Trampske - Porta7_1976_UstiNadLabem
DYEAR=1976
DGENRE=Country
TTITLE0=DlouhanFrankie_Brontosauri-Praha
TTITLE1=ZeliJeVolne_Bobri-CeskeBudejovice
TTITLE2=JaUzTeHolkaRadNemam_Permonici-Kladno
TTITLE3=HonkyTonk_Wujou-Praha
TTITLE4=ZtracenyNavrat_Chudinkove-Praha
TTITLE5=PomozMiNocPreklenout_Dostavnik-Olomouc
TTITLE6=VratimSeRano_Farmari-Kynsperk
TTITLE7=KecavejDabelAJa_Traperi-Brno
TTITLE8=CernyPramen_Smolari-Praha
TTITLE9=Dest_Vylety-HradecKralove
TTITLE10=Krysar_Krakatit-UstiNadLabem
TTITLE11=CoJeToPisen_Verumka-Kadan
TTITLE12=Toulavej_Rohaci-LoketNadOhri
TTITLE13=Podzim_Priboj-Brno
TTITLE14=Silnice-Amazonka_DvacataMile-Praha
TTITLE15=Strom_Vodnari-Litvinov
TTITLE16=VilaZBila_Slzy-Praha
TTITLE17=UzZaseSam_Variace-CeskeBudejovice
TTITLE18=OSmolickovi_Variace-CeskeBudejovice
TTITLE19=LidiProud_Oratori-Praha
TTITLE20=NezPujdemSpat_Stopa-Pardubice
TTITLE21=StarikZVarsavskehoGhetta_Vyprahlo-Nymburk
TTITLE22=JenJaVimCoZbyloZMychSnu_Wyjou-Praha
TTITLE23=Toronto_Brontosauri-Praha
EXTD=YEAR: 1976
EXTT0=
EXTT1=
EXTT2=
EXTT3=
EXTT4=
EXTT5=
EXTT6=
EXTT7=
EXTT8=
EXTT9=
EXTT10=
EXTT11=
EXTT12=
EXTT13=
EXTT14=
EXTT15=
EXTT16=
EXTT17=
EXTT18=
EXTT19=
EXTT20=
EXTT21=
EXTT22=
EXTT23=
PLAYORDER=
